<svg width="24" height="24" viewBox="0 0 24 24" fill="none" xmlns="http://www.w3.org/2000/svg">
<path fill-rule="evenodd" clip-rule="evenodd" d="M10.979 2.37603C11.5673 1.87466 12.4327 1.87466 13.021 2.37603L14.8249 3.9133C15.077 4.12815 15.3905 4.25799 15.7207 4.28434L18.0832 4.47287C18.8538 4.53436 19.4656 5.14624 19.5271 5.91678L19.7157 8.27934C19.742 8.60953 19.8719 8.923 20.0867 9.17511L21.624 10.979C22.1253 11.5673 22.1253 12.4327 21.624 13.021L20.0867 14.8249C19.8719 15.077 19.742 15.3905 19.7157 15.7207L19.5271 18.0832C19.4656 18.8538 18.8538 19.4656 18.0832 19.5271L15.7207 19.7157C15.3905 19.742 15.077 19.8719 14.8249 20.0867L13.021 21.624C12.4327 22.1253 11.5673 22.1253 10.979 21.624L9.17511 20.0867C8.923 19.8719 8.60953 19.742 8.27934 19.7157L5.91678 19.5271C5.14624 19.4656 4.53436 18.8538 4.47287 18.0832L4.28434 15.7207C4.25799 15.3905 4.12815 15.077 3.9133 14.8249L2.37603 13.021C1.87466 12.4327 1.87466 11.5673 2.37603 10.979L3.9133 9.17511C4.12815 8.923 4.25799 8.60953 4.28434 8.27934L4.47287 5.91678C4.53436 5.14624 5.14624 4.53436 5.91678 4.47287L8.27934 4.28434C8.60953 4.25799 8.923 4.12815 9.17511 3.9133L10.979 2.37603ZM13.7053 13.7747C13.7053 12.8572 12.9595 12.1317 12.0433 12.1317H11.9354C11.0405 12.1103 10.2947 12.8572 10.2947 13.7747V15.673C10.2947 15.7454 10.3538 15.8041 10.4262 15.8041H13.5739C13.6463 15.8041 13.7053 15.7454 13.7053 15.673V13.7747ZM13.1806 9.24534C13.1806 9.89736 12.652 10.4259 12 10.4259C11.348 10.4259 10.8194 9.89736 10.8194 9.24534C10.8194 8.59332 11.348 8.06476 12 8.06476C12.652 8.06476 13.1806 8.59332 13.1806 9.24534Z" fill="#0017C1"/>
</svg>
